<svg width="75" height="75" viewBox="0 0 152 152" fill="none" xmlns="http://www.w3.org/2000/svg">
<circle cx="76" cy="76" r="76" fill="#030303"/>
<path d="M5.64334 76.0001L5.64334 76.0006C5.66881 94.6524 13.0895 112.533 26.2782 125.722C39.467 138.91 57.3475 146.331 75.9993 146.357L75.9999 146.357C89.9191 146.359 103.526 142.234 115.101 134.503C126.675 126.771 135.697 115.781 141.025 102.922C146.353 90.0632 147.747 75.9131 145.033 62.2611C142.318 48.6092 135.615 36.0692 125.773 26.2271C115.931 16.3849 103.391 9.68247 89.7388 6.96726L89.6413 7.45764L89.7388 6.96724C76.0869 4.25273 61.9368 5.6472 49.0778 10.9754C36.2187 16.3028 25.2285 25.3246 17.4972 36.8994C9.7658 48.4735 5.64063 62.0809 5.64334 76.0001ZM13.224 117.946C4.928 105.53 0.500001 90.9324 0.500001 76C0.500001 55.976 8.45448 36.7722 22.6135 22.6132C36.7725 8.45424 55.9762 0.49997 76 0.49997C90.9325 0.499971 105.529 4.92771 117.946 13.2238C130.361 21.5199 140.038 33.3116 145.753 47.1075C151.467 60.9034 152.963 76.0837 150.049 90.7292C147.136 105.375 139.946 118.828 129.387 129.386C118.828 139.945 105.375 147.136 90.7294 150.049C76.0837 152.962 60.9032 151.467 47.1074 145.753C33.3116 140.038 21.5201 130.361 13.224 117.946Z" fill="#9D8665" stroke="#9D8665"/>
<path d="M83.7783 98.6018C75.9165 98.5867 71.4382 98.5781 35.4124 98.625L76 36.8694L116.588 98.6262C96.2915 98.6258 89.2234 98.6123 83.7783 98.6018Z" fill="#9D8665" stroke="#9D8665"/>
</svg>
